<svg width="265" height="243" viewBox="0 0 265 243" fill="none" xmlns="http://www.w3.org/2000/svg">
<path d="M124.087 1.05078L211.83 36.444L248.175 121.891L211.83 207.338L124.087 242.731L36.3443 207.338L0 121.891L36.3443 36.444L124.087 1.05078Z" fill="#F8971F" fill-opacity="0.59"/>
<path d="M135.886 2.02774L138.628 0.921699L138.815 1.3854L140.913 0.539145L143.011 1.38539L143.198 0.921692L145.94 2.02773L145.753 2.49143L150.323 4.33483L150.51 3.87113L153.252 4.97717L153.065 5.44087L157.634 7.28427L157.822 6.82057L160.563 7.92661L160.376 8.39031L164.946 10.2337L165.133 9.77001L167.875 10.8761L167.688 11.3398L172.258 13.1832L172.445 12.7195L175.187 13.8255L175 14.2892L179.57 16.1326L179.757 15.6689L182.499 16.7749L182.312 17.2386L186.882 19.082L187.069 18.6183L189.811 19.7244L189.624 20.1881L194.194 22.0315L194.381 21.5678L197.123 22.6738L196.936 23.1375L201.506 24.9809L201.693 24.5172L204.435 25.6232L204.248 26.0869L208.818 27.9303L209.005 27.4666L211.747 28.5727L211.56 29.0364L216.13 30.8798L216.317 30.4161L219.059 31.5221L218.872 31.9858L223.442 33.8292L223.629 33.3655L226.371 34.4716L226.184 34.9353L228.277 35.7795L229.142 37.8141L229.602 37.6184L230.738 40.2887L230.278 40.4844L232.171 44.9347L232.631 44.739L233.767 47.4092L233.307 47.6049L235.199 52.0553L235.66 51.8596L236.795 54.5298L236.335 54.7255L238.228 59.1759L238.688 58.9802L239.824 61.6504L239.364 61.8461L241.257 66.2964L241.717 66.1007L242.853 68.771L242.393 68.9667L244.286 73.417L244.746 73.2213L245.881 75.8915L245.421 76.0872L247.314 80.5376L247.774 80.3419L248.91 83.0121L248.45 83.2078L250.343 87.6582L250.803 87.4624L251.939 90.1327L251.479 90.3284L253.372 94.7787L253.832 94.583L254.967 97.2532L254.507 97.4489L256.4 101.899L256.86 101.704L257.996 104.374L257.536 104.57L259.429 109.02L259.889 108.824L261.025 111.494L260.565 111.69L262.458 116.14L262.918 115.945L264.054 118.615L263.593 118.811L264.457 120.84L263.593 122.87L264.054 123.065L262.918 125.736L262.458 125.54L260.565 129.99L261.025 130.186L259.889 132.856L259.429 132.66L257.536 137.111L257.996 137.306L256.86 139.977L256.4 139.781L254.507 144.231L254.967 144.427L253.832 147.097L253.372 146.902L251.479 151.352L251.939 151.548L250.803 154.218L250.343 154.022L248.45 158.472L248.91 158.668L247.774 161.338L247.314 161.143L245.421 165.593L245.881 165.789L244.746 168.459L244.286 168.263L242.393 172.714L242.853 172.909L241.717 175.58L241.257 175.384L239.364 179.834L239.824 180.03L238.688 182.7L238.228 182.504L236.335 186.955L236.795 187.15L235.66 189.821L235.199 189.625L233.307 194.075L233.767 194.271L232.631 196.941L232.171 196.746L230.278 201.196L230.738 201.392L229.602 204.062L229.142 203.866L228.277 205.901L226.184 206.745L226.371 207.209L223.629 208.315L223.442 207.851L218.872 209.694L219.059 210.158L216.317 211.264L216.13 210.8L211.56 212.644L211.747 213.108L209.005 214.214L208.818 213.75L204.248 215.593L204.435 216.057L201.693 217.163L201.506 216.699L196.936 218.543L197.123 219.006L194.381 220.113L194.194 219.649L189.624 221.492L189.811 221.956L187.069 223.062L186.882 222.598L182.312 224.442L182.499 224.905L179.757 226.011L179.57 225.548L175 227.391L175.187 227.855L172.445 228.961L172.258 228.497L167.688 230.341L167.875 230.804L165.133 231.91L164.946 231.447L160.376 233.29L160.563 233.754L157.822 234.86L157.634 234.396L153.065 236.239L153.252 236.703L150.51 237.809L150.323 237.345L145.753 239.189L145.94 239.653L143.198 240.759L143.011 240.295L140.913 241.141L138.815 240.295L138.628 240.759L135.886 239.653L136.073 239.189L131.503 237.345L131.316 237.809L128.574 236.703L128.761 236.239L124.191 234.396L124.004 234.86L121.262 233.754L121.449 233.29L116.879 231.447L116.692 231.91L113.95 230.804L114.137 230.341L109.567 228.497L109.38 228.961L106.638 227.855L106.825 227.391L102.255 225.548L102.068 226.011L99.3262 224.905L99.5132 224.442L94.9433 222.598L94.7562 223.062L92.0143 221.956L92.2013 221.492L87.6314 219.649L87.4443 220.113L84.7024 219.006L84.8894 218.543L80.3195 216.699L80.1324 217.163L77.3905 216.057L77.5775 215.593L73.0076 213.75L72.8205 214.214L70.0785 213.108L70.2656 212.644L65.6956 210.8L65.5086 211.264L62.7666 210.158L62.9537 209.694L58.3837 207.851L58.1967 208.315L55.4547 207.209L55.6418 206.745L53.5488 205.901L52.6834 203.866L52.2233 204.062L51.0875 201.392L51.5476 201.196L49.6547 196.746L49.1946 196.941L48.0588 194.271L48.5189 194.075L46.626 189.625L46.1659 189.821L45.0301 187.15L45.4902 186.955L43.5973 182.504L43.1372 182.7L42.0014 180.03L42.4615 179.834L40.5686 175.384L40.1085 175.58L38.9727 172.909L39.4328 172.714L37.5399 168.263L37.0798 168.459L35.944 165.789L36.4041 165.593L34.5112 161.143L34.0511 161.338L32.9153 158.668L33.3755 158.472L31.4825 154.022L31.0224 154.218L29.8867 151.548L30.3468 151.352L28.4538 146.902L27.9937 147.097L26.858 144.427L27.3181 144.231L25.4251 139.781L24.965 139.977L23.8293 137.306L24.2894 137.111L22.3964 132.66L21.9363 132.856L20.8006 130.186L21.2607 129.99L19.3677 125.54L18.9076 125.736L17.7719 123.065L18.232 122.87L17.3688 120.84L18.232 118.811L17.7719 118.615L18.9076 115.945L19.3677 116.14L21.2607 111.69L20.8006 111.494L21.9363 108.824L22.3964 109.02L24.2894 104.57L23.8293 104.374L24.965 101.704L25.4251 101.899L27.3181 97.4489L26.858 97.2532L27.9937 94.583L28.4538 94.7787L30.3468 90.3284L29.8867 90.1327L31.0224 87.4624L31.4825 87.6581L33.3755 83.2078L32.9153 83.0121L34.0511 80.3419L34.5112 80.5376L36.4042 76.0872L35.944 75.8915L37.0798 73.2213L37.5399 73.417L39.4328 68.9667L38.9727 68.7709L40.1085 66.1007L40.5686 66.2964L42.4615 61.8461L42.0014 61.6504L43.1372 58.9802L43.5973 59.1759L45.4902 54.7255L45.0301 54.5298L46.1659 51.8596L46.626 52.0553L48.5189 47.6049L48.0588 47.4092L49.1946 44.739L49.6547 44.9347L51.5476 40.4844L51.0875 40.2887L52.2233 37.6184L52.6834 37.8141L53.5488 35.7795L55.6417 34.9353L55.4547 34.4716L58.1967 33.3655L58.3837 33.8292L62.9537 31.9858L62.7666 31.5221L65.5086 30.4161L65.6956 30.8798L70.2656 29.0364L70.0785 28.5727L72.8205 27.4666L73.0075 27.9303L77.5775 26.0869L77.3905 25.6232L80.1324 24.5172L80.3195 24.9809L84.8894 23.1375L84.7024 22.6738L87.4443 21.5678L87.6314 22.0315L92.2013 20.1881L92.0143 19.7244L94.7563 18.6183L94.9433 19.082L99.5132 17.2386L99.3262 16.7749L102.068 15.6689L102.255 16.1326L106.825 14.2892L106.638 13.8255L109.38 12.7195L109.567 13.1831L114.137 11.3397L113.95 10.8761L116.692 9.77001L116.879 10.2337L121.449 8.39031L121.262 7.92662L124.004 6.82058L124.191 7.28427L128.761 5.44087L128.574 4.97718L131.316 3.87114L131.503 4.33483L136.073 2.49144L135.886 2.02774Z" stroke="#BF5700" stroke-dasharray="5 3"/>
<path d="M126.562 153.176H67.8033V77.0001H185.321V153.176H126.562Z" stroke="#BF5700" stroke-width="4" stroke-linecap="round" stroke-linejoin="round"/>
<path d="M126.562 178.568H159.206" stroke="#BF5700" stroke-width="4" stroke-linecap="round"/>
<path d="M126.562 178.568V153.176" stroke="#BF5700" stroke-width="4" stroke-linecap="round"/>
<path d="M126.562 178.568H93.9185" stroke="#BF5700" stroke-width="4" stroke-linecap="round"/>
<path d="M120.759 153.176H62.0001V77.0001H179.518V153.176H120.759Z" stroke="white" stroke-width="4" stroke-linecap="round" stroke-linejoin="round"/>
<path d="M120.759 178.568H153.403" stroke="white" stroke-width="4" stroke-linecap="round"/>
<path d="M120.759 178.568V153.176" stroke="white" stroke-width="4" stroke-linecap="round"/>
<path d="M120.759 178.568H88.1152" stroke="white" stroke-width="4" stroke-linecap="round"/>
</svg>
