<svg width="38" height="22" viewBox="0 0 38 22" fill="none" xmlns="http://www.w3.org/2000/svg">
<path d="M33.3609 9.60398L26.1839 2.33023C25.9366 2.0709 25.7998 1.72357 25.8029 1.36305C25.806 1.00253 25.9488 0.657666 26.2004 0.40273C26.452 0.147794 26.7925 0.00318406 27.1483 5.21737e-05C27.5042 -0.00308162 27.847 0.135512 28.103 0.385979L37.5141 9.92298C37.6665 10.0522 37.789 10.2138 37.8729 10.3963C37.9569 10.5787 38.0003 10.7777 38 10.979L38 10.9817C38 11.1626 37.9647 11.3417 37.8962 11.5088C37.8278 11.6758 37.7274 11.8275 37.601 11.9552L37.5738 11.9827L28.1003 21.5802C27.9751 21.7116 27.8253 21.8163 27.6597 21.8884C27.4941 21.9604 27.3161 21.9984 27.1358 21.9999C26.9556 22.0015 26.7769 21.9667 26.6101 21.8976C26.4433 21.8285 26.2918 21.7264 26.1643 21.5973C26.0369 21.4682 25.9361 21.3146 25.8679 21.1457C25.7996 20.9767 25.7653 20.7956 25.7669 20.6131C25.7684 20.4305 25.8059 20.2501 25.877 20.0823C25.9481 19.9145 26.0515 19.7628 26.1812 19.636L33.3718 12.354L1.35724 12.354C0.997277 12.354 0.652058 12.2091 0.397526 11.9513C0.142994 11.6934 -4.48646e-07 11.3437 -4.63999e-07 10.979C-4.79352e-07 10.6143 0.142994 10.2646 0.397526 10.0067C0.652058 9.74884 0.997277 9.60398 1.35724 9.60398L33.3609 9.60398Z" fill="white"/>
</svg>
