<svg width="252" height="231" viewBox="0 0 252 231" fill="none" xmlns="http://www.w3.org/2000/svg">
<path d="M118 1L201.439 34.6827L236 116L201.439 197.317L118 231L34.5614 197.317L0 116L34.5614 34.6827L118 1Z" fill="#F8971F" fill-opacity="0.59"/>
<path d="M128.785 2.10517L131.63 0.956895L131.817 1.42054L134 0.539202L136.183 1.42055L136.37 0.9569L139.215 2.10517L139.028 2.56882L143.769 4.48261L143.956 4.01896L146.8 5.16724L146.613 5.63089L151.354 7.54468L151.541 7.08103L154.386 8.2293L154.198 8.69295L158.939 10.6067L159.126 10.1431L161.971 11.2914L161.784 11.755L166.525 13.6688L166.712 13.2052L169.556 14.3534L169.369 14.8171L174.11 16.7309L174.297 16.2672L177.142 17.4155L176.954 17.8791L181.695 19.7929L181.882 19.3293L184.727 20.4776L184.54 20.9412L189.281 22.855L189.468 22.3914L192.312 23.5396L192.125 24.0033L196.866 25.9171L197.053 25.4534L199.898 26.6017L199.71 27.0653L204.451 28.9791L204.638 28.5155L207.483 29.6638L207.296 30.1274L212.037 32.0412L212.224 31.5775L215.068 32.7258L214.881 33.1895L217.059 34.0689L217.96 36.1884L218.42 35.9929L219.599 38.765L219.139 38.9606L221.102 43.5809L221.562 43.3853L222.741 46.1575L222.28 46.3531L224.244 50.9734L224.704 50.7778L225.883 53.55L225.422 53.7456L227.386 58.3659L227.846 58.1703L229.025 60.9425L228.564 61.1381L230.528 65.7584L230.988 65.5628L232.166 68.335L231.706 68.5305L233.67 73.1508L234.13 72.9553L235.308 75.7274L234.848 75.923L236.812 80.5433L237.272 80.3477L238.45 83.1199L237.99 83.3155L239.954 87.9358L240.414 87.7402L241.592 90.5124L241.132 90.708L243.096 95.3283L243.556 95.1327L244.734 97.9049L244.274 98.1005L246.238 102.721L246.698 102.525L247.876 105.297L247.416 105.493L249.38 110.113L249.84 109.918L251.018 112.69L250.558 112.885L251.457 115L250.558 117.115L251.018 117.31L249.84 120.082L249.38 119.887L247.416 124.507L247.876 124.703L246.698 127.475L246.238 127.279L244.274 131.9L244.734 132.095L243.556 134.867L243.096 134.672L241.132 139.292L241.592 139.488L240.414 142.26L239.954 142.064L237.99 146.684L238.45 146.88L237.272 149.652L236.812 149.457L234.848 154.077L235.308 154.273L234.13 157.045L233.67 156.849L231.706 161.469L232.166 161.665L230.988 164.437L230.528 164.242L228.564 168.862L229.025 169.058L227.846 171.83L227.386 171.634L225.422 176.254L225.883 176.45L224.704 179.222L224.244 179.027L222.28 183.647L222.741 183.842L221.562 186.615L221.102 186.419L219.139 191.039L219.599 191.235L218.42 194.007L217.96 193.812L217.059 195.931L214.881 196.811L215.068 197.274L212.224 198.422L212.037 197.959L207.296 199.873L207.483 200.336L204.638 201.485L204.451 201.021L199.71 202.935L199.898 203.398L197.053 204.547L196.866 204.083L192.125 205.997L192.312 206.46L189.468 207.609L189.281 207.145L184.54 209.059L184.727 209.522L181.882 210.671L181.695 210.207L176.954 212.121L177.142 212.585L174.297 213.733L174.11 213.269L169.369 215.183L169.556 215.647L166.712 216.795L166.525 216.331L161.784 218.245L161.971 218.709L159.126 219.857L158.939 219.393L154.198 221.307L154.386 221.771L151.541 222.919L151.354 222.455L146.613 224.369L146.8 224.833L143.956 225.981L143.769 225.517L139.028 227.431L139.215 227.895L136.37 229.043L136.183 228.579L134 229.461L131.817 228.579L131.63 229.043L128.785 227.895L128.972 227.431L124.231 225.517L124.044 225.981L121.2 224.833L121.387 224.369L116.646 222.455L116.459 222.919L113.614 221.771L113.802 221.307L109.061 219.393L108.874 219.857L106.029 218.709L106.216 218.245L101.475 216.331L101.288 216.795L98.4438 215.647L98.6309 215.183L93.8901 213.269L93.7029 213.733L90.8585 212.585L91.0456 212.121L86.3048 210.207L86.1176 210.671L83.2731 209.522L83.4603 209.059L78.7195 207.145L78.5323 207.609L75.6878 206.46L75.875 205.997L71.1341 204.083L70.947 204.547L68.1025 203.398L68.2896 202.935L63.5488 201.021L63.3616 201.485L60.5171 200.336L60.7043 199.873L55.9635 197.959L55.7763 198.422L52.9318 197.274L53.119 196.811L50.9406 195.931L50.0397 193.812L49.5795 194.007L48.4013 191.235L48.8615 191.039L46.8978 186.419L46.4376 186.615L45.2594 183.842L45.7195 183.647L43.7558 179.027L43.2957 179.222L42.1174 176.45L42.5776 176.254L40.6139 171.634L40.1537 171.83L38.9755 169.058L39.4356 168.862L37.4719 164.242L37.0118 164.437L35.8335 161.665L36.2937 161.469L34.33 156.849L33.8698 157.045L32.6916 154.273L33.1517 154.077L31.188 149.457L30.7279 149.652L29.5496 146.88L30.0098 146.684L28.0461 142.064L27.5859 142.26L26.4077 139.488L26.8679 139.292L24.9041 134.672L24.444 134.867L23.2658 132.095L23.7259 131.9L21.7622 127.279L21.302 127.475L20.1238 124.703L20.584 124.507L18.6202 119.887L18.1601 120.082L16.9819 117.31L17.442 117.115L16.5433 115L17.442 112.885L16.9819 112.69L18.1601 109.918L18.6202 110.113L20.584 105.493L20.1238 105.297L21.302 102.525L21.7622 102.721L23.7259 98.1005L23.2657 97.9049L24.444 95.1327L24.9041 95.3283L26.8679 90.708L26.4077 90.5124L27.5859 87.7402L28.0461 87.9358L30.0098 83.3155L29.5496 83.1199L30.7279 80.3477L31.188 80.5433L33.1517 75.923L32.6916 75.7274L33.8698 72.9553L34.33 73.1508L36.2937 68.5305L35.8335 68.335L37.0118 65.5628L37.4719 65.7584L39.4356 61.1381L38.9755 60.9425L40.1537 58.1703L40.6139 58.3659L42.5776 53.7456L42.1174 53.55L43.2957 50.7778L43.7558 50.9734L45.7195 46.3531L45.2594 46.1575L46.4376 43.3853L46.8978 43.5809L48.8615 38.9606L48.4013 38.765L49.5795 35.9929L50.0397 36.1884L50.9406 34.0689L53.119 33.1895L52.9318 32.7258L55.7763 31.5775L55.9635 32.0412L60.7043 30.1274L60.5172 29.6638L63.3616 28.5155L63.5488 28.9791L68.2896 27.0653L68.1025 26.6017L70.947 25.4534L71.1341 25.9171L75.875 24.0033L75.6878 23.5396L78.5323 22.3913L78.7195 22.855L83.4603 20.9412L83.2731 20.4776L86.1176 19.3293L86.3048 19.7929L91.0456 17.8791L90.8585 17.4155L93.7029 16.2672L93.8901 16.7309L98.6309 14.8171L98.4438 14.3534L101.288 13.2052L101.475 13.6688L106.216 11.755L106.029 11.2914L108.874 10.1431L109.061 10.6067L113.802 8.69295L113.614 8.2293L116.459 7.08103L116.646 7.54467L121.387 5.63088L121.2 5.16723L124.044 4.01896L124.231 4.48261L128.972 2.56882L128.785 2.10517Z" stroke="#BF5700" stroke-dasharray="5 3"/>
</svg>
