<svg width="51" height="51" viewBox="0 0 51 51" fill="none" xmlns="http://www.w3.org/2000/svg">
<path fill-rule="evenodd" clip-rule="evenodd" d="M25.1623 0.281372C11.2601 0.281372 0 11.8263 0 26.0802C0 37.4961 7.20272 47.1384 17.2047 50.5568C18.4629 50.7825 18.9347 50.0085 18.9347 49.3313C18.9347 48.7186 18.9032 46.6869 18.9032 44.5263C12.5812 45.7195 10.9456 42.9461 10.4424 41.4949C10.1593 40.7532 8.93263 38.4636 7.86323 37.8509C6.98255 37.3671 5.72443 36.1739 7.83178 36.1417C9.81331 36.1094 11.2287 38.0121 11.7005 38.7861C13.9651 42.6881 17.5822 41.5917 19.029 40.9145C19.2492 39.2375 19.9097 38.1088 20.6331 37.4639C15.0345 36.8189 9.18425 34.5938 9.18425 24.7257C9.18425 21.9201 10.1593 19.5982 11.7634 17.7923C11.5118 17.1473 10.6311 14.503 12.015 10.9556C12.015 10.9556 14.1224 10.2784 18.9347 13.6C20.9476 13.0195 23.0864 12.7293 25.2252 12.7293C27.364 12.7293 29.5028 13.0195 31.5158 13.6C36.3281 10.2462 38.4355 10.9556 38.4355 10.9556C39.8194 14.503 38.9387 17.1473 38.6871 17.7923C40.2912 19.5982 41.2662 21.8879 41.2662 24.7257C41.2662 34.626 35.3845 36.8189 29.7859 37.4639C30.6981 38.2701 31.4844 39.818 31.4844 42.2367C31.4844 45.6872 31.4529 48.4606 31.4529 49.3313C31.4529 50.0085 31.9247 50.8148 33.1828 50.5568C38.1779 48.8276 42.5184 45.5361 45.5935 41.1453C48.6685 36.7545 50.3232 31.4856 50.3247 26.0802C50.3247 11.8263 39.0645 0.281372 25.1623 0.281372Z" fill="#BF5700" fill-opacity="0.7"/>
</svg>
