<svg width="506" height="463" viewBox="0 0 506 463" fill="none" xmlns="http://www.w3.org/2000/svg">
<path d="M236.937 2.00439L404.476 69.5156L473.873 232.502L404.476 395.489L236.937 463L69.3971 395.489L0 232.502L69.3971 69.5156L236.937 2.00439Z" fill="#F8971F" fill-opacity="0.59"/>
<path d="M264.055 2.018L266.787 0.917273L266.974 1.38104L269.063 0.539066L271.153 1.38104L271.34 0.917273L274.071 2.018L273.885 2.48176L278.437 4.31631L278.624 3.85254L281.356 4.95327L281.169 5.41703L285.722 7.25158L285.908 6.78782L288.64 7.88854L288.453 8.35231L293.006 10.1869L293.193 9.72309L295.924 10.8238L295.738 11.2876L300.29 13.1221L300.477 12.6584L303.209 13.7591L303.022 14.2229L307.575 16.0574L307.761 15.5936L310.493 16.6944L310.306 17.1581L314.859 18.9927L315.046 18.5289L317.777 19.6296L317.591 20.0934L322.143 21.9279L322.33 21.4642L325.062 22.5649L324.875 23.0287L329.428 24.8632L329.614 24.3995L332.346 25.5002L332.159 25.9639L336.712 27.7985L336.899 27.3347L339.63 28.4355L339.443 28.8992L343.996 30.7338L344.183 30.27L346.915 31.3707L346.728 31.8345L351.28 33.669L351.467 33.2053L354.199 34.306L354.012 34.7698L358.565 36.6043L358.752 36.1405L361.483 37.2413L361.296 37.705L365.849 39.5396L366.036 39.0758L368.768 40.1765L368.581 40.6403L373.133 42.4748L373.32 42.0111L376.052 43.1118L375.865 43.5756L380.418 45.4101L380.605 44.9463L383.336 46.0471L383.149 46.5108L387.702 48.3454L387.889 47.8816L390.621 48.9823L390.434 49.4461L394.986 51.2807L395.173 50.8169L397.905 51.9176L397.718 52.3814L402.271 54.2159L402.458 53.7522L405.189 54.8529L405.002 55.3167L409.555 57.1512L409.742 56.6874L412.474 57.7882L412.287 58.2519L416.839 60.0865L417.026 59.6227L419.758 60.7234L419.571 61.1872L424.124 63.0217L424.311 62.558L427.042 63.6587L426.855 64.1225L431.408 65.957L431.595 65.4932L434.327 66.594L434.14 67.0577L436.224 67.8976L437.129 70.0222L437.589 69.8264L438.772 72.6045L438.311 72.8004L440.283 77.4307L440.743 77.2348L441.926 80.013L441.466 80.2089L443.437 84.8392L443.897 84.6433L445.08 87.4215L444.62 87.6174L446.592 92.2477L447.052 92.0518L448.235 94.83L447.775 95.0259L449.746 99.6562L450.206 99.4603L451.389 102.238L450.929 102.434L452.901 107.065L453.361 106.869L454.544 109.647L454.084 109.843L456.055 114.473L456.515 114.277L457.698 117.055L457.238 117.251L459.209 121.882L459.67 121.686L460.852 124.464L460.392 124.66L462.364 129.29L462.824 129.094L464.007 131.872L463.547 132.068L465.518 136.699L465.978 136.503L467.161 139.281L466.701 139.477L468.673 144.107L469.133 143.911L470.316 146.689L469.856 146.885L471.827 151.516L472.287 151.32L473.47 154.098L473.01 154.294L474.982 158.924L475.442 158.728L476.624 161.506L476.164 161.702L478.136 166.333L478.596 166.137L479.779 168.915L479.319 169.111L481.29 173.741L481.75 173.545L482.933 176.323L482.473 176.519L484.445 181.149L484.905 180.954L486.088 183.732L485.628 183.928L487.599 188.558L488.059 188.362L489.242 191.14L488.782 191.336L490.754 195.966L491.214 195.771L492.397 198.549L491.937 198.745L493.908 203.375L494.368 203.179L495.551 205.957L495.091 206.153L497.062 210.783L497.522 210.588L498.705 213.366L498.245 213.562L500.217 218.192L500.677 217.996L501.86 220.774L501.4 220.97L503.371 225.6L503.831 225.405L505.014 228.183L504.554 228.379L505.457 230.498L504.554 232.617L505.014 232.813L503.831 235.591L503.371 235.395L501.4 240.026L501.86 240.221L500.677 243L500.217 242.804L498.245 247.434L498.705 247.63L497.522 250.408L497.062 250.212L495.091 254.843L495.551 255.038L494.368 257.817L493.908 257.621L491.937 262.251L492.397 262.447L491.214 265.225L490.754 265.029L488.782 269.66L489.242 269.855L488.059 272.634L487.599 272.438L485.628 277.068L486.088 277.264L484.905 280.042L484.445 279.846L482.473 284.476L482.933 284.672L481.75 287.451L481.29 287.255L479.319 291.885L479.779 292.081L478.596 294.859L478.136 294.663L476.164 299.293L476.624 299.489L475.442 302.267L474.982 302.072L473.01 306.702L473.47 306.898L472.287 309.676L471.827 309.48L469.856 314.11L470.316 314.306L469.133 317.084L468.673 316.889L466.701 321.519L467.161 321.715L465.978 324.493L465.518 324.297L463.547 328.927L464.007 329.123L462.824 331.901L462.364 331.706L460.392 336.336L460.852 336.532L459.67 339.31L459.209 339.114L457.238 343.744L457.698 343.94L456.515 346.718L456.055 346.523L454.084 351.153L454.544 351.349L453.361 354.127L452.901 353.931L450.929 358.561L451.389 358.757L450.206 361.535L449.746 361.339L447.775 365.97L448.235 366.166L447.052 368.944L446.592 368.748L444.62 373.378L445.08 373.574L443.897 376.352L443.437 376.156L441.466 380.787L441.926 380.983L440.743 383.761L440.283 383.565L438.311 388.195L438.772 388.391L437.589 391.169L437.129 390.973L436.224 393.098L434.14 393.938L434.327 394.402L431.595 395.502L431.408 395.039L426.855 396.873L427.042 397.337L424.311 398.438L424.124 397.974L419.571 399.809L419.758 400.272L417.026 401.373L416.839 400.909L412.287 402.744L412.474 403.208L409.742 404.308L409.555 403.844L405.002 405.679L405.189 406.143L402.458 407.244L402.271 406.78L397.718 408.614L397.905 409.078L395.173 410.179L394.986 409.715L390.434 411.55L390.621 412.013L387.889 413.114L387.702 412.65L383.149 414.485L383.336 414.949L380.605 416.049L380.418 415.586L375.865 417.42L376.052 417.884L373.32 418.985L373.133 418.521L368.581 420.355L368.768 420.819L366.036 421.92L365.849 421.456L361.296 423.291L361.483 423.754L358.752 424.855L358.565 424.391L354.012 426.226L354.199 426.69L351.467 427.79L351.28 427.327L346.728 429.161L346.915 429.625L344.183 430.726L343.996 430.262L339.443 432.096L339.63 432.56L336.899 433.661L336.712 433.197L332.159 435.032L332.346 435.495L329.614 436.596L329.428 436.132L324.875 437.967L325.062 438.431L322.33 439.531L322.143 439.068L317.59 440.902L317.777 441.366L315.046 442.467L314.859 442.003L310.306 443.838L310.493 444.301L307.761 445.402L307.575 444.938L303.022 446.773L303.209 447.237L300.477 448.337L300.29 447.874L295.738 449.708L295.924 450.172L293.193 451.273L293.006 450.809L288.453 452.643L288.64 453.107L285.908 454.208L285.722 453.744L281.169 455.579L281.356 456.042L278.624 457.143L278.437 456.679L273.885 458.514L274.071 458.978L271.34 460.078L271.153 459.615L269.063 460.457L266.974 459.615L266.787 460.078L264.055 458.978L264.242 458.514L259.69 456.679L259.503 457.143L256.771 456.042L256.958 455.579L252.405 453.744L252.218 454.208L249.487 453.107L249.674 452.643L245.121 450.809L244.934 451.273L242.203 450.172L242.389 449.708L237.837 447.874L237.65 448.337L234.918 447.237L235.105 446.773L230.552 444.938L230.365 445.402L227.634 444.301L227.821 443.838L223.268 442.003L223.081 442.467L220.35 441.366L220.536 440.902L215.984 439.068L215.797 439.531L213.065 438.431L213.252 437.967L208.699 436.132L208.513 436.596L205.781 435.495L205.968 435.032L201.415 433.197L201.228 433.661L198.497 432.56L198.683 432.096L194.131 430.262L193.944 430.726L191.212 429.625L191.399 429.161L186.846 427.327L186.66 427.79L183.928 426.69L184.115 426.226L179.562 424.391L179.375 424.855L176.644 423.754L176.831 423.291L172.278 421.456L172.091 421.92L169.359 420.819L169.546 420.355L164.993 418.521L164.807 418.985L162.075 417.884L162.262 417.42L157.709 415.586L157.522 416.049L154.791 414.949L154.978 414.485L150.425 412.65L150.238 413.114L147.506 412.013L147.693 411.55L143.141 409.715L142.954 410.179L140.222 409.078L140.409 408.614L135.856 406.78L135.669 407.244L132.938 406.143L133.125 405.679L128.572 403.844L128.385 404.308L125.653 403.208L125.84 402.744L121.288 400.909L121.101 401.373L118.369 400.272L118.556 399.808L114.003 397.974L113.816 398.438L111.085 397.337L111.272 396.873L106.719 395.039L106.532 395.502L103.8 394.402L103.987 393.938L101.903 393.098L100.998 390.973L100.538 391.169L99.3554 388.391L99.8154 388.195L97.8439 383.565L97.3839 383.761L96.201 380.983L96.661 380.787L94.6895 376.156L94.2295 376.352L93.0466 373.574L93.5066 373.378L91.5351 368.748L91.0751 368.944L89.8922 366.166L90.3522 365.97L88.3807 361.34L87.9207 361.535L86.7377 358.757L87.1978 358.561L85.2263 353.931L84.7662 354.127L83.5833 351.349L84.0434 351.153L82.0719 346.523L81.6118 346.718L80.4289 343.94L80.8889 343.744L78.9174 339.114L78.4574 339.31L77.2745 336.532L77.7345 336.336L75.763 331.706L75.303 331.901L74.1201 329.123L74.5801 328.927L72.6086 324.297L72.1486 324.493L70.9657 321.715L71.4257 321.519L69.4542 316.889L68.9942 317.084L67.8113 314.306L68.2713 314.11L66.2998 309.48L65.8397 309.676L64.6568 306.898L65.1169 306.702L63.1454 302.072L62.6853 302.268L61.5024 299.489L61.9625 299.293L59.991 294.663L59.5309 294.859L58.348 292.081L58.808 291.885L56.8365 287.255L56.3765 287.451L55.1936 284.672L55.6536 284.476L53.6821 279.846L53.2221 280.042L52.0392 277.264L52.4992 277.068L50.5277 272.438L50.0677 272.634L48.8848 269.855L49.3448 269.66L47.3733 265.029L46.9133 265.225L45.7304 262.447L46.1904 262.251L44.2189 257.621L43.7589 257.817L42.5759 255.038L43.036 254.843L41.0645 250.212L40.6044 250.408L39.4215 247.63L39.8816 247.434L37.9101 242.804L37.45 243L36.2671 240.221L36.7272 240.026L34.7556 235.395L34.2956 235.591L33.1127 232.813L33.5727 232.617L32.6704 230.498L33.5727 228.379L33.1127 228.183L34.2956 225.405L34.7556 225.6L36.7271 220.97L36.2671 220.774L37.45 217.996L37.91 218.192L39.8816 213.562L39.4215 213.366L40.6044 210.588L41.0645 210.783L43.036 206.153L42.5759 205.957L43.7588 203.179L44.2189 203.375L46.1904 198.745L45.7304 198.549L46.9133 195.771L47.3733 195.966L49.3448 191.336L48.8848 191.14L50.0677 188.362L50.5277 188.558L52.4992 183.928L52.0392 183.732L53.2221 180.954L53.6821 181.15L55.6536 176.519L55.1936 176.323L56.3765 173.545L56.8365 173.741L58.808 169.111L58.348 168.915L59.5309 166.137L59.991 166.333L61.9625 161.702L61.5024 161.506L62.6853 158.728L63.1454 158.924L65.1169 154.294L64.6568 154.098L65.8397 151.32L66.2998 151.516L68.2713 146.885L67.8113 146.689L68.9942 143.911L69.4542 144.107L71.4257 139.477L70.9657 139.281L72.1486 136.503L72.6086 136.699L74.5801 132.068L74.1201 131.872L75.303 129.094L75.763 129.29L77.7345 124.66L77.2745 124.464L78.4574 121.686L78.9174 121.882L80.8889 117.251L80.4289 117.055L81.6118 114.277L82.0718 114.473L84.0434 109.843L83.5833 109.647L84.7662 106.869L85.2263 107.065L87.1978 102.434L86.7377 102.239L87.9206 99.4603L88.3807 99.6562L90.3522 95.0259L89.8921 94.83L91.0751 92.0518L91.5351 92.2477L93.5066 87.6174L93.0466 87.4215L94.2295 84.6434L94.6895 84.8392L96.661 80.2089L96.201 80.0131L97.3839 77.2349L97.8439 77.4308L99.8154 72.8005L99.3554 72.6046L100.538 69.8264L100.998 70.0223L101.903 67.8976L103.987 67.0577L103.8 66.594L106.532 65.4932L106.719 65.957L111.272 64.1225L111.085 63.6587L113.816 62.558L114.003 63.0217L118.556 61.1872L118.369 60.7234L121.101 59.6227L121.288 60.0865L125.84 58.2519L125.653 57.7882L128.385 56.6874L128.572 57.1512L133.125 55.3166L132.938 54.8529L135.669 53.7522L135.856 54.2159L140.409 52.3814L140.222 51.9176L142.954 50.8169L143.141 51.2806L147.693 49.4461L147.506 48.9823L150.238 47.8816L150.425 48.3454L154.978 46.5108L154.791 46.0471L157.522 44.9463L157.709 45.4101L162.262 43.5756L162.075 43.1118L164.807 42.0111L164.993 42.4748L169.546 40.6403L169.359 40.1765L172.091 39.0758L172.278 39.5396L176.831 37.705L176.644 37.2413L179.375 36.1405L179.562 36.6043L184.115 34.7697L183.928 34.306L186.66 33.2053L186.846 33.669L191.399 31.8345L191.212 31.3707L193.944 30.27L194.131 30.7338L198.683 28.8992L198.497 28.4354L201.228 27.3347L201.415 27.7985L205.968 25.9639L205.781 25.5002L208.513 24.3994L208.699 24.8632L213.252 23.0287L213.065 22.5649L215.797 21.4642L215.984 21.9279L220.536 20.0934L220.35 19.6296L223.081 18.5289L223.268 18.9927L227.821 17.1581L227.634 16.6944L230.365 15.5936L230.552 16.0574L235.105 14.2228L234.918 13.7591L237.65 12.6584L237.837 13.1221L242.389 11.2876L242.203 10.8238L244.934 9.72309L245.121 10.1869L249.674 8.35231L249.487 7.88854L252.218 6.78781L252.405 7.25158L256.958 5.41703L256.771 4.95327L259.503 3.85254L259.69 4.31631L264.242 2.48176L264.055 2.018Z" stroke="#BF5700" stroke-dasharray="5 3"/>
</svg>
