<svg width="51" height="51" viewBox="0 0 51 51" fill="none" xmlns="http://www.w3.org/2000/svg">
<path d="M25.1623 0.478394C11.2654 0.478394 0 11.7438 0 25.6407C0 39.5377 11.2654 50.8031 25.1623 50.8031C39.0593 50.8031 50.3247 39.5377 50.3247 25.6407C50.3247 11.7438 39.0593 0.478394 25.1623 0.478394ZM19.0028 36.07H13.9074V19.6725H19.0028V36.07ZM16.4237 17.6596C14.8143 17.6596 13.7738 16.5194 13.7738 15.1092C13.7738 13.6703 14.8458 12.5642 16.4892 12.5642C18.1326 12.5642 19.1391 13.6703 19.1706 15.1092C19.1706 16.5194 18.1326 17.6596 16.4237 17.6596ZM37.6125 36.07H32.5171V26.9827C32.5171 24.8675 31.7779 23.4312 29.9353 23.4312C28.5278 23.4312 27.6917 24.4036 27.3221 25.3393C27.1858 25.6722 27.1517 26.144 27.1517 26.6132V36.0674H22.0537V24.9016C22.0537 22.8545 21.9882 21.143 21.9201 19.6699H26.3471L26.5803 21.9476H26.6826C27.3536 20.8782 28.997 19.3003 31.7465 19.3003C35.0988 19.3003 37.6125 21.5466 37.6125 26.3746V36.07Z" fill="white"/>
</svg>
