<svg width="51" height="51" viewBox="0 0 51 51" fill="none" xmlns="http://www.w3.org/2000/svg">
<circle cx="25.1623" cy="25.8376" r="25.1623" fill="white"/>
<path d="M39.1814 15.7727H11.1433C10.5468 15.7727 10.0649 16.2157 10.0649 16.764V36.5889C10.0649 37.1372 10.5468 37.5802 11.1433 37.5802H39.1814C39.7778 37.5802 40.2597 37.1372 40.2597 36.5889V16.764C40.2597 16.2157 39.7778 15.7727 39.1814 15.7727ZM37.8334 19.2049V35.3499H12.4913V19.2049L11.5612 18.5389L12.8856 16.9746L14.3279 18.0061H36.0001L37.4425 16.9746L38.7669 18.5389L37.8334 19.2049ZM36.0001 18.003L25.1623 25.7471L14.3246 18.003L12.8822 16.9715L11.5578 18.5358L12.4879 19.2018L23.9997 27.4292C24.3308 27.6656 24.7381 27.7939 25.1573 27.7939C25.5765 27.7939 25.9838 27.6656 26.3149 27.4292L37.8334 19.2049L38.7635 18.5389L37.4391 16.9746L36.0001 18.003Z" fill="#FFB151"/>
</svg>
