<svg width="30" height="30" viewBox="0 0 30 30" fill="none" xmlns="http://www.w3.org/2000/svg">
<circle cx="15" cy="15" r="15" fill="#BF5700" fill-opacity="0.7"/>
<path d="M23.3571 9H6.64286C6.28728 9 6 9.26406 6 9.59091V21.4091C6 21.736 6.28728 22.0001 6.64286 22.0001H23.3571C23.7127 22.0001 24 21.736 24 21.4091V9.59091C24 9.26406 23.7127 9 23.3571 9ZM22.5536 11.046V20.6705H7.44643V11.046L6.89196 10.649L7.68147 9.71648L8.54129 10.3314H21.4607L22.3205 9.71648L23.11 10.649L22.5536 11.046ZM21.4607 10.3296L15 14.9461L8.53929 10.3296L7.67946 9.71463L6.88996 10.6472L7.44442 11.0442L14.3069 15.9488C14.5043 16.0897 14.7471 16.1662 14.997 16.1662C15.2469 16.1662 15.4897 16.0897 15.6871 15.9488L22.5536 11.046L23.108 10.649L22.3185 9.71648L21.4607 10.3296Z" fill="white"/>
</svg>
