<svg width="154" height="145" viewBox="0 0 154 145" fill="none" xmlns="http://www.w3.org/2000/svg">
<path d="M82.3308 0L133.009 20.2975L154 69.3L133.009 118.302L82.3308 138.6L31.6531 118.302L10.6616 69.3L31.6531 20.2975L82.3308 0Z" fill="white"/>
<path d="M66.6919 6.74895L69.4068 5.65229L69.5941 6.11589L71.6692 5.27766L73.7444 6.1159L73.9316 5.65229L76.6465 6.74895L76.4592 7.21255L80.984 9.04032L81.1713 8.57671L83.8862 9.67337L83.6989 10.137L88.2237 11.9647L88.411 11.5011L91.1259 12.5978L90.9386 13.0614L95.4634 14.8892L95.6507 14.4256L98.3656 15.5222L98.1783 15.9858L102.703 17.8136L102.89 17.35L105.605 18.4466L105.418 18.9103L109.943 20.738L110.13 20.2744L112.845 21.3711L112.658 21.8347L117.182 23.6624L117.37 23.1988L120.085 24.2955L119.897 24.7591L121.968 25.5954L122.824 27.6112L123.284 27.4157L124.409 30.0633L123.948 30.2587L125.823 34.6714L126.283 34.4759L127.407 37.1235L126.947 37.3189L128.821 41.7315L129.282 41.5361L130.406 44.1836L129.946 44.3791L131.82 48.7917L132.28 48.5963L133.405 51.2438L132.945 51.4393L134.819 55.8519L135.279 55.6564L136.404 58.304L135.944 58.4995L137.818 62.9121L138.278 62.7166L139.403 65.3642L138.942 65.5597L140.817 69.9723L141.277 69.7768L142.401 72.4244L141.941 72.6199L142.795 74.6307L141.941 76.6415L142.401 76.837L141.277 79.4846L140.817 79.2891L138.942 83.7017L139.403 83.8972L138.278 86.5448L137.818 86.3493L135.944 90.7619L136.404 90.9574L135.279 93.605L134.819 93.4095L132.945 97.8221L133.405 98.0176L132.28 100.665L131.82 100.47L129.946 104.882L130.406 105.078L129.282 107.725L128.821 107.53L126.947 111.942L127.407 112.138L126.283 114.786L125.823 114.59L123.948 119.003L124.409 119.198L123.284 121.846L122.824 121.65L121.968 123.666L119.897 124.502L120.085 124.966L117.37 126.063L117.182 125.599L112.658 127.427L112.845 127.89L110.13 128.987L109.943 128.523L105.418 130.351L105.605 130.815L102.89 131.911L102.703 131.448L98.1783 133.276L98.3656 133.739L95.6507 134.836L95.4634 134.372L90.9386 136.2L91.1259 136.664L88.411 137.76L88.2237 137.297L83.6989 139.124L83.8862 139.588L81.1713 140.685L80.984 140.221L76.4592 142.049L76.6465 142.512L73.9316 143.609L73.7444 143.146L71.6692 143.984L69.5941 143.146L69.4068 143.609L66.6919 142.512L66.8792 142.049L62.3544 140.221L62.1671 140.685L59.4523 139.588L59.6395 139.124L55.1147 137.297L54.9275 137.76L52.2126 136.664L52.3998 136.2L47.875 134.372L47.6878 134.836L44.9729 133.739L45.1602 133.276L40.6354 131.448L40.4481 131.911L37.7332 130.815L37.9205 130.351L33.3957 128.523L33.2084 128.987L30.4935 127.89L30.6808 127.427L26.156 125.599L25.9687 126.063L23.2538 124.966L23.4411 124.502L21.3707 123.666L20.5145 121.65L20.0543 121.846L18.9298 119.198L19.39 119.003L17.5157 114.59L17.0555 114.786L15.931 112.138L16.3912 111.942L14.517 107.53L14.0568 107.725L12.9322 105.078L13.3924 104.882L11.5182 100.47L11.058 100.665L9.93345 98.0176L10.3937 97.8221L8.51942 93.4095L8.05921 93.605L6.93467 90.9574L7.39488 90.7619L5.52064 86.3493L5.06043 86.5448L3.93589 83.8972L4.3961 83.7017L2.52187 79.2891L2.06166 79.4846L0.937118 76.837L1.39733 76.6415L0.543234 74.6307L1.39732 72.6199L0.937116 72.4244L2.06166 69.7768L2.52186 69.9723L4.3961 65.5597L3.93589 65.3642L5.06043 62.7166L5.52064 62.9121L7.39488 58.4995L6.93467 58.304L8.05921 55.6565L8.51942 55.8519L10.3937 51.4393L9.93344 51.2438L11.058 48.5963L11.5182 48.7917L13.3924 44.3791L12.9322 44.1836L14.0568 41.5361L14.517 41.7315L16.3912 37.3189L15.931 37.1235L17.0555 34.4759L17.5157 34.6714L19.39 30.2587L18.9298 30.0633L20.0543 27.4157L20.5145 27.6112L21.3707 25.5954L23.4411 24.7591L23.2538 24.2955L25.9687 23.1988L26.156 23.6624L30.6808 21.8347L30.4935 21.3711L33.2084 20.2744L33.3957 20.738L37.9205 18.9103L37.7332 18.4466L40.4481 17.35L40.6354 17.8136L45.1602 15.9858L44.9729 15.5222L47.6878 14.4256L47.875 14.8892L52.3998 13.0614L52.2126 12.5978L54.9275 11.5011L55.1147 11.9647L59.6395 10.137L59.4523 9.67337L62.1671 8.57671L62.3544 9.04032L66.8792 7.21255L66.6919 6.74895Z" stroke="url(#paint0_linear_27_3869)" stroke-dasharray="5 3"/>
<path d="M70.8742 82.1334C61.0577 82.1334 41.4615 87.0719 41.4615 96.8752V104.246H100.287V96.8752C100.287 87.0719 80.6906 82.1334 70.8742 82.1334ZM88.3379 56.3351H85.5805C85.5805 50.8806 82.6025 46.2 78.2273 43.6202V47.1214C78.2273 48.1533 77.4185 48.9641 76.389 48.9641C75.3596 48.9641 74.5508 48.1533 74.5508 47.1214V42.1091C73.3743 41.8143 72.161 41.5932 70.8742 41.5932C69.5874 41.5932 68.3741 41.8143 67.1976 42.1091V47.1214C67.1976 48.1533 66.3888 48.9641 65.3593 48.9641C64.3299 48.9641 63.521 48.1533 63.521 47.1214V43.6202C59.1459 46.2 56.1679 50.8806 56.1679 56.3351H53.4104V60.0205H88.3379V56.3351ZM70.8742 74.7624C77.7126 74.7624 83.4113 70.045 85.0658 63.706H56.6826C58.337 70.045 64.0357 74.7624 70.8742 74.7624ZM118.596 49.8118L122.015 46.7528L119.258 41.9617L114.883 43.3991C114.368 42.9937 113.78 42.662 113.155 42.404L112.236 37.9077H106.721L105.802 42.404C105.177 42.662 104.588 42.9937 104.037 43.3991L99.6986 41.9617L96.9411 46.7528L100.36 49.8118C100.287 50.4383 100.287 51.1017 100.36 51.7282L96.9411 54.8609L99.6986 59.652L104.11 58.2515C104.588 58.6201 105.14 58.9149 105.691 59.1729L106.721 63.706H112.236L113.228 59.2097C113.817 58.9517 114.331 58.6569 114.846 58.2884L119.221 59.6888L121.979 54.8977L118.559 51.7651C118.67 51.0648 118.633 50.4383 118.596 49.8118ZM109.478 55.4137C108.259 55.4137 107.09 54.9283 106.229 54.0644C105.367 53.2004 104.883 52.0287 104.883 50.8069C104.883 49.585 105.367 48.4133 106.229 47.5493C107.09 46.6854 108.259 46.2 109.478 46.2C110.697 46.2 111.866 46.6854 112.728 47.5493C113.59 48.4133 114.074 49.585 114.074 50.8069C114.074 52.0287 113.59 53.2004 112.728 54.0644C111.866 54.9283 110.697 55.4137 109.478 55.4137ZM109.111 66.6175L105.986 67.6495C105.618 67.3546 105.213 67.1335 104.772 66.9492L104.11 63.706H100.177L99.5147 66.9124C99.0735 67.0966 98.6324 67.3546 98.2647 67.6126L95.1764 66.5807L93.191 70.0082L95.6176 72.1826C95.5808 72.6617 95.5808 73.104 95.6176 73.5462L93.191 75.7943L95.1764 79.2218L98.3382 78.2267C98.7059 78.4847 99.0735 78.7059 99.478 78.8901L100.14 82.1334H104.074L104.772 78.927C105.177 78.7427 105.581 78.5216 105.949 78.2636L109.074 79.2587L111.059 75.8312L108.633 73.5831C108.669 73.104 108.669 72.6617 108.633 72.2194L111.059 70.045L109.111 66.6175ZM102.125 76.1997C100.324 76.1997 98.853 74.7256 98.853 72.9197C98.853 71.1138 100.324 69.6396 102.125 69.6396C103.927 69.6396 105.397 71.1138 105.397 72.9197C105.397 74.7256 103.927 76.1997 102.125 76.1997Z" fill="url(#paint1_linear_27_3869)"/>
<path d="M67.3203 78.9745C57.5039 78.9745 37.9077 83.8248 37.9077 93.4531V100.692H96.733V93.4531C96.733 83.8248 77.1368 78.9745 67.3203 78.9745ZM84.7841 53.6369H82.0267C82.0267 48.2798 79.0486 43.6828 74.6735 41.149V44.5877C74.6735 45.6012 73.8647 46.3975 72.8352 46.3975C71.8058 46.3975 70.9969 45.6012 70.9969 44.5877V39.665C69.8204 39.3754 68.6072 39.1582 67.3203 39.1582C66.0335 39.1582 64.8203 39.3754 63.6438 39.665V44.5877C63.6438 45.6012 62.8349 46.3975 61.8055 46.3975C60.776 46.3975 59.9672 45.6012 59.9672 44.5877V41.149C55.5921 43.6828 52.614 48.2798 52.614 53.6369H49.8566V57.2565H84.7841V53.6369ZM67.3203 71.7352C74.1588 71.7352 79.8575 67.102 81.5119 60.8762H53.1288C54.7832 67.102 60.4819 71.7352 67.3203 71.7352ZM115.042 47.2301L118.462 44.2258L115.704 39.5202L111.329 40.9319C110.814 40.5337 110.226 40.2079 109.601 39.9546L108.682 35.5386H103.167L102.248 39.9546C101.623 40.2079 101.035 40.5337 100.483 40.9319L96.1447 39.5202L93.3873 44.2258L96.8065 47.2301C96.733 47.8454 96.733 48.4969 96.8065 49.1123L93.3873 52.189L96.1447 56.8946L100.557 55.5191C101.035 55.8811 101.586 56.1706 102.138 56.424L103.167 60.8762H108.682L109.675 56.4602C110.263 56.2068 110.778 55.9172 111.292 55.5553L115.667 56.9308L118.425 52.2252L115.006 49.1485C115.116 48.4608 115.079 47.8454 115.042 47.2301ZM105.924 52.7319C104.706 52.7319 103.537 52.2553 102.675 51.4067C101.813 50.5582 101.329 49.4074 101.329 48.2074C101.329 47.0074 101.813 45.8565 102.675 45.008C103.537 44.1595 104.706 43.6828 105.924 43.6828C107.143 43.6828 108.312 44.1595 109.174 45.008C110.036 45.8565 110.52 47.0074 110.52 48.2074C110.52 49.4074 110.036 50.5582 109.174 51.4067C108.312 52.2553 107.143 52.7319 105.924 52.7319ZM105.557 63.7357L102.432 64.7492C102.064 64.4596 101.66 64.2425 101.218 64.0615L100.557 60.8762H96.6227L95.9609 64.0253C95.5197 64.2063 95.0785 64.4596 94.7109 64.713L91.6225 63.6995L89.6372 67.0658L92.0637 69.2014C92.027 69.6719 92.027 70.1063 92.0637 70.5407L89.6372 72.7487L91.6225 76.1149L94.7844 75.1376C95.1521 75.391 95.5197 75.6082 95.9241 75.7892L96.5859 78.9745H100.52L101.218 75.8254C101.623 75.6444 102.027 75.4272 102.395 75.1738L105.52 76.1511L107.505 72.7849L105.079 70.5769C105.116 70.1063 105.116 69.6719 105.079 69.2376L107.505 67.102L105.557 63.7357ZM98.5713 73.1468C96.7697 73.1468 95.2991 71.699 95.2991 69.9253C95.2991 68.1517 96.7697 66.7038 98.5713 66.7038C100.373 66.7038 101.843 68.1517 101.843 69.9253C101.843 71.699 100.373 73.1468 98.5713 73.1468Z" fill="#F8971F"/>
<defs>
<linearGradient id="paint0_linear_27_3869" x1="71.6692" y1="4.7384" x2="71.6692" y2="144.523" gradientUnits="userSpaceOnUse">
<stop offset="0.260417" stop-color="#FEB06F"/>
<stop offset="0.651042" stop-color="#FEB06F" stop-opacity="0.87"/>
<stop offset="0.822917" stop-color="#FEB06F" stop-opacity="0.69"/>
<stop offset="1" stop-color="#FFD1AB" stop-opacity="0.29"/>
</linearGradient>
<linearGradient id="paint1_linear_27_3869" x1="81.7385" y1="37.9077" x2="81.7385" y2="104.246" gradientUnits="userSpaceOnUse">
<stop offset="0.260417" stop-color="#FEB06F"/>
<stop offset="0.651042" stop-color="#FEB06F" stop-opacity="0.87"/>
<stop offset="0.822917" stop-color="#FEB06F" stop-opacity="0.69"/>
<stop offset="1" stop-color="#FFD1AB" stop-opacity="0.29"/>
</linearGradient>
</defs>
</svg>
