<svg width="32" height="48" viewBox="0 0 32 48" fill="none" xmlns="http://www.w3.org/2000/svg">
<path d="M16 10C15.4696 10 14.9609 10.2634 14.5858 10.7322C14.2107 11.2011 14 11.837 14 12.5V22.5C14 23.163 14.2107 23.7989 14.5858 24.2678C14.9609 24.7366 15.4696 25 16 25C16.5304 25 17.0391 24.7366 17.4142 24.2678C17.7893 23.7989 18 23.163 18 22.5V12.5C18 11.837 17.7893 11.2011 17.4142 10.7322C17.0391 10.2634 16.5304 10 16 10Z" fill="#808080"/>
<path fill-rule="evenodd" clip-rule="evenodd" d="M0 16C0 11.7565 1.68571 7.68687 4.68629 4.68629C7.68687 1.68571 11.7565 0 16 0C20.2435 0 24.3131 1.68571 27.3137 4.68629C30.3143 7.68687 32 11.7565 32 16V32C32 36.2435 30.3143 40.3131 27.3137 43.3137C24.3131 46.3143 20.2435 48 16 48C11.7565 48 7.68687 46.3143 4.68629 43.3137C1.68571 40.3131 0 36.2435 0 32V16ZM28 16V32C28 35.1826 26.7357 38.2348 24.4853 40.4853C22.2348 42.7357 19.1826 44 16 44C12.8174 44 9.76516 42.7357 7.51472 40.4853C5.26428 38.2348 4 35.1826 4 32V16C4 12.8174 5.26428 9.76516 7.51472 7.51472C9.76516 5.26428 12.8174 4 16 4C19.1826 4 22.2348 5.26428 24.4853 7.51472C26.7357 9.76516 28 12.8174 28 16V16Z" fill="#808080"/>
</svg>
