<svg width="276" height="259" viewBox="0 0 276 259" fill="none" xmlns="http://www.w3.org/2000/svg">
<path d="M147.554 0L238.379 36.3752L276 124.193L238.379 212.01L147.554 248.385L56.7289 212.01L19.1079 124.193L56.7289 36.3752L147.554 0Z" fill="white"/>
<path d="M123.243 10.5935L126.081 9.44707L126.268 9.91068L128.446 9.03094L130.624 9.91068L130.811 9.44707L133.65 10.5935L133.462 11.0571L138.193 12.9679L138.38 12.5042L141.218 13.6507L141.031 14.1143L145.762 16.025L145.949 15.5614L148.787 16.7079L148.6 17.1715L153.33 19.0822L153.518 18.6186L156.356 19.765L156.169 20.2286L160.899 22.1394L161.086 21.6758L163.925 22.8222L163.737 23.2858L168.468 25.1965L168.655 24.7329L171.493 25.8794L171.306 26.343L176.037 28.2537L176.224 27.7901L179.062 28.9366L178.875 29.4002L183.605 31.3109L183.793 30.8473L186.631 31.9937L186.444 32.4573L191.174 34.3681L191.361 33.9045L194.2 35.0509L194.012 35.5145L198.743 37.4252L198.93 36.9616L201.768 38.1081L201.581 38.5717L206.312 40.4824L206.499 40.0188L209.337 41.1652L209.15 41.6289L213.88 43.5396L214.068 43.076L216.906 44.2224L216.719 44.686L218.892 45.5638L219.791 47.6797L220.251 47.4842L221.427 50.252L220.966 50.4475L222.926 55.0604L223.386 54.8649L224.562 57.6327L224.101 57.8281L226.061 62.4411L226.521 62.2456L227.697 65.0133L227.237 65.2088L229.196 69.8217L229.656 69.6263L230.832 72.394L230.372 72.5895L232.331 77.2024L232.791 77.0069L233.967 79.7747L233.507 79.9702L235.466 84.5831L235.926 84.3876L237.102 87.1553L236.642 87.3508L238.601 91.9638L239.061 91.7683L240.237 94.536L239.777 94.7315L241.736 99.3444L242.196 99.1489L243.372 101.917L242.912 102.112L244.871 106.725L245.332 106.53L246.507 109.297L246.047 109.493L248.006 114.106L248.467 113.91L249.642 116.678L249.182 116.874L251.142 121.486L251.602 121.291L252.777 124.059L252.317 124.254L254.277 128.867L254.737 128.672L255.912 131.439L255.452 131.635L256.349 133.746L255.452 135.857L255.912 136.052L254.737 138.82L254.277 138.625L252.317 143.237L252.777 143.433L251.602 146.201L251.142 146.005L249.182 150.618L249.642 150.814L248.467 153.581L248.006 153.386L246.047 157.999L246.507 158.194L245.332 160.962L244.871 160.767L242.912 165.38L243.372 165.575L242.196 168.343L241.736 168.147L239.777 172.76L240.237 172.956L239.061 175.723L238.601 175.528L236.642 180.141L237.102 180.336L235.926 183.104L235.466 182.909L233.507 187.522L233.967 187.717L232.791 190.485L232.331 190.289L230.372 194.902L230.832 195.098L229.656 197.865L229.196 197.67L227.237 202.283L227.697 202.478L226.521 205.246L226.061 205.051L224.101 209.664L224.562 209.859L223.386 212.627L222.926 212.431L220.966 217.044L221.427 217.24L220.251 220.007L219.791 219.812L218.892 221.928L216.719 222.806L216.906 223.269L214.068 224.416L213.88 223.952L209.15 225.863L209.337 226.326L206.499 227.473L206.312 227.009L201.581 228.92L201.768 229.384L198.93 230.53L198.743 230.066L194.012 231.977L194.2 232.441L191.361 233.587L191.174 233.124L186.444 235.034L186.631 235.498L183.793 236.644L183.605 236.181L178.875 238.092L179.062 238.555L176.224 239.702L176.037 239.238L171.306 241.149L171.493 241.612L168.655 242.759L168.468 242.295L163.737 244.206L163.925 244.669L161.086 245.816L160.899 245.352L156.169 247.263L156.356 247.727L153.518 248.873L153.33 248.41L148.6 250.32L148.787 250.784L145.949 251.93L145.762 251.467L141.031 253.377L141.218 253.841L138.38 254.987L138.193 254.524L133.462 256.435L133.65 256.898L130.811 258.045L130.624 257.581L128.446 258.461L126.268 257.581L126.081 258.045L123.243 256.898L123.43 256.435L118.699 254.524L118.512 254.987L115.674 253.841L115.861 253.377L111.131 251.467L110.943 251.93L108.105 250.784L108.292 250.32L103.562 248.41L103.375 248.873L100.536 247.727L100.724 247.263L95.9931 245.352L95.8058 245.816L92.9675 244.669L93.1548 244.206L88.4243 242.295L88.2371 242.759L85.3988 241.612L85.586 241.149L80.8556 239.238L80.6683 239.702L77.83 238.555L78.0173 238.092L73.2868 236.181L73.0995 236.644L70.2613 235.498L70.4485 235.034L65.718 233.124L65.5308 233.587L62.6925 232.441L62.8798 231.977L58.1493 230.066L57.962 230.53L55.1237 229.384L55.311 228.92L50.5805 227.009L50.3933 227.473L47.555 226.326L47.7422 225.863L43.0118 223.952L42.8245 224.416L39.9862 223.269L40.1735 222.806L38.0002 221.928L37.1015 219.812L36.6413 220.007L35.4656 217.24L35.9258 217.044L33.9664 212.431L33.5062 212.627L32.3305 209.859L32.7907 209.664L30.8313 205.051L30.3711 205.246L29.1955 202.478L29.6557 202.283L27.6962 197.67L27.236 197.865L26.0604 195.098L26.5206 194.902L24.5612 190.289L24.101 190.485L22.9253 187.717L23.3855 187.522L21.4261 182.909L20.9659 183.104L19.7902 180.336L20.2504 180.141L18.291 175.528L17.8308 175.723L16.6551 172.956L17.1153 172.76L15.1559 168.147L14.6957 168.343L13.52 165.575L13.9802 165.38L12.0208 160.767L11.5606 160.962L10.385 158.194L10.8452 157.999L8.88574 153.386L8.42553 153.581L7.24988 150.814L7.71008 150.618L5.75066 146.005L5.29045 146.201L4.1148 143.433L4.575 143.238L2.61557 138.625L2.15537 138.82L0.979712 136.052L1.43992 135.857L0.543238 133.746L1.43991 131.635L0.979706 131.439L2.15536 128.672L2.61557 128.867L4.57499 124.254L4.11479 124.059L5.29045 121.291L5.75065 121.486L7.71008 116.874L7.24987 116.678L8.42553 113.91L8.88573 114.106L10.8452 109.493L10.385 109.297L11.5606 106.53L12.0208 106.725L13.9802 102.112L13.52 101.917L14.6957 99.149L15.1559 99.3444L17.1153 94.7315L16.6551 94.536L17.8308 91.7683L18.291 91.9638L20.2504 87.3508L19.7902 87.1554L20.9659 84.3876L21.4261 84.5831L23.3855 79.9702L22.9253 79.7747L24.1009 77.0069L24.5611 77.2024L26.5206 72.5895L26.0604 72.394L27.236 69.6263L27.6962 69.8217L29.6557 65.2088L29.1955 65.0133L30.3711 62.2456L30.8313 62.4411L32.7907 57.8282L32.3305 57.6327L33.5062 54.8649L33.9664 55.0604L35.9258 50.4475L35.4656 50.252L36.6413 47.4842L37.1015 47.6797L38.0002 45.5638L40.1735 44.686L39.9862 44.2224L42.8245 43.076L43.0118 43.5396L47.7423 41.6289L47.555 41.1652L50.3933 40.0188L50.5805 40.4824L55.311 38.5717L55.1237 38.1081L57.962 36.9616L58.1493 37.4252L62.8798 35.5145L62.6925 35.0509L65.5308 33.9045L65.718 34.3681L70.4485 32.4573L70.2613 31.9937L73.0995 30.8473L73.2868 31.3109L78.0173 29.4002L77.83 28.9366L80.6683 27.7901L80.8556 28.2537L85.586 26.343L85.3988 25.8794L88.2371 24.7329L88.4243 25.1965L93.1548 23.2858L92.9675 22.8222L95.8058 21.6758L95.9931 22.1394L100.724 20.2286L100.536 19.765L103.375 18.6186L103.562 19.0822L108.292 17.1715L108.105 16.7079L110.943 15.5614L111.131 16.025L115.861 14.1143L115.674 13.6507L118.512 12.5042L118.699 12.9678L123.43 11.0571L123.243 10.5935Z" stroke="#F8971F" stroke-dasharray="5 3"/>
<path d="M195.413 106.518C195.418 111.227 194.34 115.877 192.258 120.117C190.177 124.358 187.147 128.08 183.395 131.004L174.243 109.99L195.124 102.282C195.314 103.671 195.413 105.081 195.413 106.518Z" fill="#BF5700"/>
<path d="M163.657 137.768C168.266 137.768 172.641 136.803 176.593 135.059L167.186 113.462L160.129 96.1014L187.128 85.4765C182.153 80.1003 175.428 76.5999 168.112 75.5783C160.796 74.5567 153.347 76.0777 147.048 79.8795C140.749 83.6813 135.994 89.5257 133.603 96.4061C131.212 103.287 131.334 110.772 133.948 117.573L90.7888 152.962C88.8438 154.558 87.258 156.535 86.1326 158.768C85.0072 161 84.3669 163.439 84.2525 165.929C84.1381 168.418 84.5521 170.904 85.4681 173.227C86.3841 175.55 87.782 177.66 89.5727 179.423C91.3634 181.185 93.5075 182.56 95.8685 183.462C98.2294 184.363 100.755 184.771 103.285 184.658C105.815 184.545 108.293 183.915 110.562 182.808C112.831 181.7 114.84 180.14 116.461 178.226L152.423 135.754C156.013 137.089 159.82 137.772 163.657 137.768ZM154.54 107.483L150.334 113.685L156.043 111.81C156.393 111.693 156.771 111.688 157.124 111.795C157.477 111.901 157.788 112.114 158.011 112.403C158.235 112.692 158.361 113.043 158.371 113.406C158.381 113.769 158.275 114.127 158.068 114.428L153.863 120.629L159.572 118.754L160.687 122.053L150.101 125.525C149.752 125.639 149.376 125.644 149.024 125.537C148.673 125.431 148.364 125.219 148.141 124.931C147.918 124.644 147.791 124.294 147.78 123.933C147.768 123.571 147.872 123.215 148.076 122.914L152.282 116.712L146.573 118.587C146.223 118.704 145.845 118.709 145.492 118.602C145.139 118.496 144.829 118.283 144.605 117.994C144.381 117.705 144.255 117.354 144.245 116.991C144.235 116.628 144.341 116.27 144.548 115.969L148.753 109.768L143.044 111.643L141.93 108.344L152.515 104.872C152.864 104.758 153.24 104.753 153.592 104.86C153.943 104.966 154.252 105.178 154.475 105.466C154.698 105.753 154.825 106.103 154.836 106.464C154.848 106.826 154.744 107.182 154.54 107.483ZM103.675 172.49C101.803 172.49 100.008 171.758 98.6846 170.456C97.3612 169.153 96.6177 167.387 96.6177 165.545C96.6177 163.704 97.3612 161.937 98.6846 160.635C100.008 159.333 101.803 158.601 103.675 158.601C105.546 158.601 107.341 159.333 108.664 160.635C109.988 161.937 110.731 163.704 110.731 165.545C110.731 167.387 109.988 169.153 108.664 170.456C107.341 171.758 105.546 172.49 103.675 172.49Z" fill="#BF5700"/>
<path d="M190.036 102.934C190.041 107.643 188.963 112.293 186.881 116.533C184.8 120.774 181.77 124.496 178.019 127.42L168.866 106.406L189.747 98.6978C189.938 100.087 190.036 101.496 190.036 102.934Z" fill="#ECC595"/>
<path d="M158.281 134.184C162.889 134.184 167.264 133.218 171.216 131.475L161.809 109.878L154.752 92.5172L181.752 81.8923C176.776 76.5161 170.051 73.0157 162.735 71.9941C155.419 70.9725 147.97 72.4935 141.671 76.2953C135.372 80.0971 130.618 85.9415 128.226 92.8219C125.835 99.7023 125.957 107.188 128.572 113.989L85.4121 149.378C83.467 150.974 81.8813 152.951 80.7559 155.184C79.6305 157.416 78.9902 159.855 78.8758 162.344C78.7614 164.834 79.1754 167.32 80.0914 169.643C81.0074 171.966 82.4053 174.076 84.196 175.838C85.9867 177.601 88.1308 178.976 90.4918 179.878C92.8527 180.779 95.3786 181.186 97.9085 181.074C100.438 180.961 102.917 180.331 105.185 179.224C107.454 178.116 109.463 176.556 111.085 174.642L147.046 132.17C150.636 133.505 154.443 134.187 158.281 134.184ZM149.163 103.899L144.957 110.1L150.666 108.225C151.016 108.109 151.394 108.104 151.747 108.21C152.101 108.317 152.411 108.53 152.634 108.819C152.858 109.108 152.984 109.459 152.994 109.822C153.005 110.185 152.899 110.543 152.692 110.843L148.486 117.045L154.195 115.17L155.31 118.468L144.725 121.941C144.376 122.055 143.999 122.059 143.648 121.953C143.296 121.847 142.987 121.635 142.764 121.347C142.541 121.059 142.415 120.71 142.403 120.349C142.391 119.987 142.495 119.631 142.699 119.33L146.905 113.128L141.196 115.003C140.846 115.119 140.468 115.125 140.115 115.018C139.762 114.912 139.452 114.699 139.228 114.41C139.004 114.121 138.879 113.77 138.868 113.407C138.858 113.043 138.964 112.686 139.171 112.385L143.377 106.184L137.668 108.059L136.553 104.76L147.138 101.288C147.487 101.173 147.863 101.169 148.215 101.276C148.566 101.382 148.875 101.594 149.099 101.882C149.322 102.169 149.448 102.518 149.46 102.88C149.471 103.242 149.368 103.598 149.163 103.899ZM98.2978 168.906C96.4262 168.906 94.6313 168.174 93.3079 166.872C91.9845 165.569 91.241 163.803 91.241 161.961C91.241 160.119 91.9845 158.353 93.3079 157.051C94.6313 155.748 96.4262 155.017 98.2978 155.017C100.169 155.017 101.964 155.748 103.288 157.051C104.611 158.353 105.355 160.119 105.355 161.961C105.355 163.803 104.611 165.569 103.288 166.872C101.964 168.174 100.169 168.906 98.2978 168.906Z" fill="#ECC595"/>
</svg>
