<svg width="16" height="41" viewBox="0 0 16 41" fill="none" xmlns="http://www.w3.org/2000/svg">
<path d="M9.01529 35.9947L14.3053 28.251C14.4939 27.9843 14.7465 27.8367 15.0087 27.84C15.2709 27.8433 15.5217 27.9973 15.7071 28.2689C15.8925 28.5404 15.9977 28.9077 16 29.2916C16.0022 29.6756 15.9014 30.0455 15.7193 30.3217L8.78329 40.4757C8.68929 40.6401 8.57179 40.7723 8.43908 40.8629C8.30637 40.9535 8.1617 41.0003 8.01529 41H8.01329C7.88174 41 7.75149 40.9619 7.63 40.888C7.5085 40.8142 7.39816 40.7059 7.30529 40.5695L7.28529 40.5402L0.305288 30.3187C0.209778 30.1837 0.133596 30.0221 0.0811869 29.8434C0.0287779 29.6647 0.00119157 29.4726 3.77571e-05 29.2781C-0.00111606 29.0837 0.0241854 28.8909 0.0744663 28.7109C0.124747 28.5309 0.199 28.3674 0.292893 28.2299C0.386786 28.0924 0.498438 27.9837 0.621335 27.9101C0.744231 27.8364 0.87591 27.7994 1.00869 27.8011C1.14147 27.8028 1.27269 27.8432 1.39469 27.9199C1.5167 27.9967 1.62704 28.1082 1.71929 28.2481L7.01529 36.0064V1.46439C7.01529 1.07601 7.12065 0.703537 7.30818 0.42891C7.49572 0.154284 7.75007 0 8.01529 0C8.28051 0 8.53486 0.154284 8.7224 0.42891C8.90993 0.703537 9.01529 1.07601 9.01529 1.46439V35.9947Z" fill="#7F7F7F"/>
</svg>
