<svg width="23" height="23" viewBox="0 0 23 23" fill="none" xmlns="http://www.w3.org/2000/svg">
<path fill-rule="evenodd" clip-rule="evenodd" d="M19.9151 3.08482C19.9821 3.15158 20.0352 3.2309 20.0714 3.31822C20.1076 3.40554 20.1263 3.49915 20.1263 3.59369C20.1263 3.68823 20.1076 3.78184 20.0714 3.86917C20.0352 3.95649 19.9821 4.0358 19.9151 4.10257L4.10262 19.9151C3.96766 20.05 3.78461 20.1259 3.59374 20.1259C3.40288 20.1259 3.21983 20.05 3.08487 19.9151C2.94991 19.7801 2.87408 19.5971 2.87408 19.4062C2.87408 19.2153 2.94991 19.0323 3.08487 18.8973L18.8974 3.08482C18.9641 3.01788 19.0434 2.96478 19.1308 2.92854C19.2181 2.89231 19.3117 2.87366 19.4062 2.87366C19.5008 2.87366 19.5944 2.89231 19.6817 2.92854C19.769 2.96478 19.8484 3.01788 19.9151 3.08482Z" fill="white"/>
<path fill-rule="evenodd" clip-rule="evenodd" d="M3.08488 3.08482C3.01794 3.15158 2.96484 3.2309 2.9286 3.31822C2.89237 3.40554 2.87372 3.49915 2.87372 3.59369C2.87372 3.68823 2.89237 3.78184 2.9286 3.86917C2.96484 3.95649 3.01794 4.0358 3.08488 4.10257L18.8974 19.9151C19.0323 20.05 19.2154 20.1259 19.4063 20.1259C19.5971 20.1259 19.7802 20.05 19.9151 19.9151C20.0501 19.7801 20.1259 19.5971 20.1259 19.4062C20.1259 19.2153 20.0501 19.0323 19.9151 18.8973L4.10263 3.08482C4.03586 3.01788 3.95655 2.96478 3.86923 2.92854C3.78191 2.89231 3.68829 2.87366 3.59375 2.87366C3.49921 2.87366 3.4056 2.89231 3.31828 2.92854C3.23096 2.96478 3.15164 3.01788 3.08488 3.08482V3.08482Z" fill="white"/>
</svg>
